<mxfile host="drawio-plugin" modified="2022-12-10T05:58:40.751Z" agent="5.0 (Macintosh; Intel Mac OS X 10_15_7) AppleWebKit/537.36 (KHTML, like Gecko) Chrome/98.0.4758.102 Safari/537.36" etag="CHDufcQPbS17JVas0PbG" version="20.5.3" type="embed"><diagram id="rgbYG1p0dCCFXq9RGG-V" name="Page-1"><mxGraphModel dx="1113" dy="578" grid="1" gridSize="10" guides="1" tooltips="1" connect="1" arrows="1" fold="1" page="1" pageScale="1" pageWidth="850" pageHeight="1100" math="0" shadow="0"><root><mxCell id="0"/><mxCell id="1" parent="0"/><mxCell id="2" value="sent /start" style="rounded=1;whiteSpace=wrap;html=1;" parent="1" vertex="1"><mxGeometry x="100" y="10" width="120" height="60" as="geometry"/></mxCell><mxCell id="5" style="edgeStyle=orthogonalEdgeStyle;rounded=0;orthogonalLoop=1;jettySize=auto;html=1;" edge="1" parent="1" source="3" target="4"><mxGeometry relative="1" as="geometry"/></mxCell><mxCell id="9" value="YES" style="edgeLabel;html=1;align=center;verticalAlign=middle;resizable=0;points=[];" vertex="1" connectable="0" parent="5"><mxGeometry x="0.1077" y="-3" relative="1" as="geometry"><mxPoint as="offset"/></mxGeometry></mxCell><mxCell id="7" style="edgeStyle=orthogonalEdgeStyle;rounded=0;orthogonalLoop=1;jettySize=auto;html=1;entryX=0.5;entryY=0;entryDx=0;entryDy=0;" edge="1" parent="1" source="3" target="11"><mxGeometry relative="1" as="geometry"><mxPoint x="590" y="230" as="targetPoint"/></mxGeometry></mxCell><mxCell id="8" value="NO" style="edgeLabel;html=1;align=center;verticalAlign=middle;resizable=0;points=[];" vertex="1" connectable="0" parent="7"><mxGeometry x="-0.3727" y="2" relative="1" as="geometry"><mxPoint as="offset"/></mxGeometry></mxCell><mxCell id="3" value="user in cache?" style="rhombus;whiteSpace=wrap;html=1;" parent="1" vertex="1"><mxGeometry x="120" y="130" width="80" height="80" as="geometry"/></mxCell><mxCell id="4" value="everything good, use the user" style="rounded=1;whiteSpace=wrap;html=1;" parent="1" vertex="1"><mxGeometry x="30" y="270" width="120" height="60" as="geometry"/></mxCell><mxCell id="15" style="edgeStyle=orthogonalEdgeStyle;rounded=0;orthogonalLoop=1;jettySize=auto;html=1;entryX=0.5;entryY=0;entryDx=0;entryDy=0;" edge="1" parent="1" source="11" target="16"><mxGeometry relative="1" as="geometry"><mxPoint x="365" y="330" as="targetPoint"/></mxGeometry></mxCell><mxCell id="11" value="&amp;nbsp;createUser()" style="rounded=1;whiteSpace=wrap;html=1;" vertex="1" parent="1"><mxGeometry x="305" y="230" width="120" height="60" as="geometry"/></mxCell><mxCell id="22" style="edgeStyle=orthogonalEdgeStyle;rounded=0;orthogonalLoop=1;jettySize=auto;html=1;" edge="1" parent="1" source="16" target="21"><mxGeometry relative="1" as="geometry"/></mxCell><mxCell id="25" value="NO" style="edgeLabel;html=1;align=center;verticalAlign=middle;resizable=0;points=[];" vertex="1" connectable="0" parent="22"><mxGeometry x="-0.2432" y="-1" relative="1" as="geometry"><mxPoint as="offset"/></mxGeometry></mxCell><mxCell id="24" style="edgeStyle=orthogonalEdgeStyle;rounded=0;orthogonalLoop=1;jettySize=auto;html=1;entryX=0.5;entryY=0;entryDx=0;entryDy=0;" edge="1" parent="1" source="16" target="23"><mxGeometry relative="1" as="geometry"/></mxCell><mxCell id="26" value="YES" style="edgeLabel;html=1;align=center;verticalAlign=middle;resizable=0;points=[];" vertex="1" connectable="0" parent="24"><mxGeometry x="-0.3674" y="2" relative="1" as="geometry"><mxPoint as="offset"/></mxGeometry></mxCell><mxCell id="16" value="error:&lt;br&gt;user already exists?" style="rhombus;whiteSpace=wrap;html=1;" vertex="1" parent="1"><mxGeometry x="325" y="330" width="80" height="80" as="geometry"/></mxCell><mxCell id="21" value="save new user with params" style="rounded=0;whiteSpace=wrap;html=1;" vertex="1" parent="1"><mxGeometry x="170" y="460" width="120" height="60" as="geometry"/></mxCell><mxCell id="23" value="Enter userID to connect to the user." style="rounded=1;whiteSpace=wrap;html=1;" vertex="1" parent="1"><mxGeometry x="480" y="450" width="120" height="60" as="geometry"/></mxCell></root></mxGraphModel></diagram></mxfile>